<svg width="20" height="20" viewBox="0 0 20 20" fill="none" xmlns="http://www.w3.org/2000/svg">
<rect width="20" height="20" />
<path d="M14.65 10.2487L18.7337 12.3599V12.3647C18.8241 12.4119 18.8977 12.4855 18.9449 12.5759C19.0697 12.8175 18.9753 13.1151 18.7337 13.2399L10.5663 17.4601C10.2111 17.6433 9.78868 17.6433 9.43347 17.4601L1.26604 13.2351C1.17564 13.1879 1.10204 13.1143 1.05484 13.0239C0.930034 12.7823 1.02444 12.4847 1.26604 12.3599L5.34975 10.2487" stroke="#00A5AD" stroke-width="2" stroke-linejoin="round"/>
<path d="M18.7337 7.35992L10.5663 3.1374C10.2111 2.9542 9.78868 2.9542 9.43347 3.1374L1.26604 7.35992C1.02444 7.48472 0.930034 7.78233 1.05484 8.02394C1.10204 8.11434 1.17564 8.18794 1.26604 8.23514L9.43347 12.4601C9.78868 12.6433 10.2111 12.6433 10.5663 12.4601L18.7337 8.23994C18.9753 8.11514 19.0697 7.81753 18.9449 7.57592C18.8977 7.48552 18.8241 7.41192 18.7337 7.36472V7.35992Z" stroke="#00A5AD" stroke-width="2" stroke-linecap="round" stroke-linejoin="round"/>
</svg>
