<svg width="312" height="322" viewBox="0 0 312 322" fill="none" xmlns="http://www.w3.org/2000/svg">
<path d="M156.293 310.853C242.132 310.853 311.719 241.266 311.719 155.426C311.719 69.5868 242.132 0 156.293 0C70.453 0 0.866211 69.5868 0.866211 155.426C0.866211 241.266 70.453 310.853 156.293 310.853Z" fill="#E6ECF6"/>
<path fill-rule="evenodd" clip-rule="evenodd" d="M224.977 286.062H229.591V71.9771H224.977V286.062Z" fill="white"/>
<path fill-rule="evenodd" clip-rule="evenodd" d="M229.487 73.9924V103.65H293.816L303.471 88.8208L293.816 73.9924H229.487Z" fill="#0D3880"/>
<path fill-rule="evenodd" clip-rule="evenodd" d="M160.907 120.597H225.236V90.9397H160.907L151.252 105.768L160.907 120.597Z" fill="#2560C4"/>
<mask id="mask0" mask-type="alpha" maskUnits="userSpaceOnUse" x="0" y="0" width="312" height="311">
<path d="M156.292 310.853C242.132 310.853 311.719 241.266 311.719 155.426C311.719 69.5868 242.132 0 156.292 0C70.4525 0 0.865723 69.5868 0.865723 155.426C0.865723 241.266 70.4525 310.853 156.292 310.853Z" fill="#E6ECF6"/>
</mask>
<g mask="url(#mask0)">
<path fill-rule="evenodd" clip-rule="evenodd" d="M218.432 301.971H235.44V262.993H218.432V301.971Z" fill="white"/>
</g>
<path fill-rule="evenodd" clip-rule="evenodd" d="M127.258 182.256C127.258 182.256 111.856 239.34 107.865 247.98C105.184 253.777 96.8605 275.878 92.166 292.906L83.7608 289.451C82.6688 281.002 84.6902 271.334 87.8882 260.865C94.6342 238.782 98.4801 231.186 99.4531 213.392C100.426 195.595 93.303 176.912 96.6022 166.846C99.9001 156.781 127.257 182.256 127.257 182.256" fill="#3D5491"/>
<path fill-rule="evenodd" clip-rule="evenodd" d="M102.03 320.255L75.3488 311.721L79.3313 302.941L91.5895 303.989L103.696 315.799L102.03 320.255Z" fill="black"/>
<path fill-rule="evenodd" clip-rule="evenodd" d="M80.2091 303.044L89.6382 303.822L91.0786 296.785L82.6483 294.502L80.2091 303.044Z" fill="white"/>
<path fill-rule="evenodd" clip-rule="evenodd" d="M91.079 296.784L82.6487 294.502L83.7608 289.45L92.1649 292.905L91.079 296.784Z" fill="#E2857E"/>
<path fill-rule="evenodd" clip-rule="evenodd" d="M97.8362 165.863C97.8362 165.863 112.676 230.125 113.269 235.604C113.862 241.082 110.131 251.619 113.244 270.5C114.801 279.94 117.027 289.948 118.864 297.593L127.976 298.04C128.44 281.586 129.244 252.727 129.353 246.036C129.506 236.54 136.87 179.541 136.87 179.541C136.87 179.541 103.418 152.689 97.8376 165.863" fill="#4E5EAF"/>
<path fill-rule="evenodd" clip-rule="evenodd" d="M146.85 320.454L118.782 321.324L119.439 311.746L131.327 308.646L146.85 315.71V320.454Z" fill="black"/>
<path fill-rule="evenodd" clip-rule="evenodd" d="M120.301 311.551L129.432 309.14L128.315 302.047L119.593 302.712L120.301 311.551Z" fill="white"/>
<path fill-rule="evenodd" clip-rule="evenodd" d="M128.315 302.047L119.593 302.711L118.863 297.593L127.974 298.04L128.315 302.047Z" fill="#E2857E"/>
<path fill-rule="evenodd" clip-rule="evenodd" d="M165.365 182.036C165.365 182.036 165.931 184.612 166.007 184.768C166.084 184.922 165.843 187.209 166.906 187.45C167.97 187.692 168.041 184.553 168.041 184.553L166.324 182.336L165.365 182.036V182.036Z" fill="#CC7676"/>
<path fill-rule="evenodd" clip-rule="evenodd" d="M169.873 184.922C169.873 184.922 170.081 183.94 169.882 183.298C169.686 182.656 165.864 178.353 165.311 177.849C164.757 177.347 161.491 175.999 161.491 175.999L164.295 180.193L169.872 184.922H169.873Z" fill="#E2857E"/>
<path fill-rule="evenodd" clip-rule="evenodd" d="M166.946 183.486L166.957 186.123C166.957 186.123 166.276 187.356 166.24 188.231C166.206 189.103 166.556 189.625 166.717 189.707C166.879 189.793 168.592 187.15 168.592 187.15L168.483 183.908L166.946 183.486V183.486Z" fill="#CC7676"/>
<path fill-rule="evenodd" clip-rule="evenodd" d="M167.94 184.212L168.07 187.599C168.07 187.599 167.262 190.137 167.742 190.786C168.221 191.435 168.687 191.278 168.687 191.278L169.842 188.091L167.941 184.212H167.94Z" fill="#DB807D"/>
<path fill-rule="evenodd" clip-rule="evenodd" d="M151.819 169.243L155.58 171.582C155.58 171.582 160.979 175.248 161.935 175.68C162.893 176.109 165.126 178.728 166.165 179.757C167.805 181.386 168.871 182.402 169.548 183.597C170.681 185.593 171.005 190.635 170.754 191.019C170.489 191.426 169.574 190.458 169.371 189.778C168.982 189.036 168.431 186.107 168.11 185.388C167.775 184.636 165.278 182.398 164.722 182.134C164.265 181.915 162.762 181.594 162.762 181.594L161.401 182.408L162.873 184.746C162.873 184.746 166.266 186.72 165.834 187.568C165.254 188.709 162.907 187.256 162.069 186.755C160.857 186.03 158.385 184.568 157.392 183.58C155.919 182.115 152.571 176.909 152.571 176.909L148.805 173.966L151.819 169.243V169.243Z" fill="#E2857E"/>
<path fill-rule="evenodd" clip-rule="evenodd" d="M124.356 139.947L154.051 169.268L146.324 179.343C146.324 179.343 115.195 160.923 109.367 147.816C103.54 134.714 133.588 103.85 124.356 139.947" fill="#EC1380"/>
<path fill-rule="evenodd" clip-rule="evenodd" d="M116.003 46.292C121.922 44.8365 130.08 46.0706 131.709 55.9613C132.847 62.8905 134.192 74.9091 129.802 76.4139C127.859 77.0808 120.435 76.3592 120.435 76.3592L121.949 84.6003L108.344 84.521L110.64 72.7457C110.64 72.7457 96.492 51.0864 116.003 46.2907" fill="#E2857E"/>
<path fill-rule="evenodd" clip-rule="evenodd" d="M127.433 47.6569L118.417 60.7006C116.848 57.7349 114.45 58.4988 113.178 60.8851C111.613 63.8235 115.094 66.3587 114.759 67.3495C114.422 68.339 111.418 72.6386 110.642 72.7452C109.867 72.8504 95.1241 66.0594 102.02 49.2245C105.201 41.4644 118.672 38.8117 127.433 47.6583L110.64 47.81" fill="black"/>
<mask id="mask1" mask-type="alpha" maskUnits="userSpaceOnUse" x="104" y="27" width="15" height="17">
<path d="M104.072 27.5537H118.125V43.9403H104.072V27.5537Z" fill="white"/>
</mask>
<g mask="url(#mask1)">
<path fill-rule="evenodd" clip-rule="evenodd" d="M117.864 34.5068C118.93 39.1891 116.66 42.7753 112.386 43.7415C108.115 44.7078 105.471 42.0878 104.407 37.4069C103.341 32.7246 104.796 28.6984 109.066 27.7321C113.339 26.7659 116.798 29.8232 117.864 34.5068Z" fill="black"/>
</g>
<path fill-rule="evenodd" clip-rule="evenodd" d="M124.65 82.4722L82.7036 71.9624C82.7036 71.9624 74.0169 98.4488 95.1528 99.8128C116.287 101.177 124.65 82.4722 124.65 82.4722Z" fill="#EC1380"/>
<path fill-rule="evenodd" clip-rule="evenodd" d="M113.183 81.0737C107.139 81.414 101.528 87.6666 97.567 99.0224C94.4606 119.525 83.307 196.081 83.307 196.081L139.721 191.402C139.721 191.402 137.401 91.5999 126.646 83.2153C122.781 81.5684 118.322 80.7867 113.184 81.0737" fill="#EC1380"/>
<path fill-rule="evenodd" clip-rule="evenodd" d="M75.3657 198.648C75.4929 198.095 75.5585 187.196 75.5585 187.196L69.5997 184.645L69.7309 185.851C69.7309 185.851 68.4052 188.659 68.2398 189.773C68.0717 190.886 67.618 195.822 67.618 195.822C67.618 195.822 63.8446 202.002 63.8664 202.81C63.8856 203.619 64.7192 203.459 64.7192 203.459L69.2389 197.689L69.8047 198.673L68.5678 201.852C68.5678 201.852 65.1087 205.934 65.1238 206.456C65.1402 206.98 65.8987 206.667 65.3944 207.823C64.8887 208.979 66.0982 209.158 66.0982 209.158C66.0982 209.158 72.0912 205.597 72.4793 205.23C72.8674 204.861 75.2263 199.244 75.3644 198.648" fill="#E2857E"/>
<path fill-rule="evenodd" clip-rule="evenodd" d="M96.7116 91.8818C96.7116 91.8818 74.4714 130.172 69.7126 141.922C67.176 148.181 65.3542 186.175 65.3542 186.175L77.9797 189.585L85.9585 149.518L104.902 117.407L96.7116 91.8818V91.8818Z" fill="#EC1380"/>
</svg>
