<svg width="380" height="363" fill="none" xmlns="http://www.w3.org/2000/svg"><g clip-path="url(#clip0)"><path d="M105.652 265C-2.594 265-62.956 1.154 101.982 68.196c72.038 29.265 113.74 20.596 153.95-16.361 51.066-46.956 88.697-38.42 98.483 2.483 6.738 28.134-13.034 56.29 5.471 91.873C400.431 224.185 375.344 265 323.234 265H105.652z" fill="#F5F5F5"/><path d="M128.322 358.407c35.118 14.148 63.396-9.547 92.062-14.148 28.666-4.6 30.873-11.353 19.45-18.699-11.447-7.346-51.512-3.166-79.329-7.049-27.817-3.883-67.3 25.748-32.183 39.896z" fill="#EFE6F4"/><path d="M289.289 125.205c-1.095-2.517-2.518-4.706-4.161-6.129-1.861-1.641-3.722-2.189-5.255-1.532a3.604 3.604 0 00-1.861 1.751c-.438.766-.657 1.861-.766 3.065-.11 2.189.438 4.706 1.532 7.223 1.095 2.517 2.518 4.706 4.161 6.129 1.094.985 2.189 1.532 3.175 1.751.766.11 1.423 0 2.08-.219.438-.219.876-.547 1.314-.875 1.751-1.97 1.751-6.458-.219-11.164zm-1.971 10.069c-.11.11-.329.11-.438.11-.657 0-1.533-.438-2.409-1.204a21.546 21.546 0 01-1.97-2.299c-.657-.875-1.205-1.97-1.642-3.064-.986-2.189-1.424-4.487-1.314-6.348 0-1.094.328-1.97.657-2.408l.109-.109c.11-.11.329-.219.438-.328.657-.329 1.752.109 2.847 1.094 1.423 1.204 2.627 3.174 3.612 5.363 1.862 4.487 1.643 8.537.11 9.193z" fill="#00A5AD"/><path d="M291.041 130.349c-4.707 4.378-10.619 7.552-16.86 9.303-3.175.876-6.459 1.313-9.744 1.532a50.801 50.801 0 01-9.962-.656c-1.643-.329-3.285-.657-4.927-1.204a34.193 34.193 0 01-4.708-1.642c-.328-.109-.547-.219-.876-.328l7.555-18.278c.985.548 1.97.985 2.956 1.423 1.313.547 2.518.985 3.941 1.313 1.861.548 3.941.767 5.912.876 1.971.109 4.051 0 6.021-.219 3.613-.547 7.007-1.532 10.401-3.174.438-.219 1.314-.766 1.314-.766l8.977 11.82z" fill="#C46C30"/><path d="M249.657 139.324a34.134 34.134 0 01-4.707-1.642c-.986-.438-2.08-.876-3.066-1.423a7.01 7.01 0 01-1.533-.875c-1.423-.767-2.846-1.642-4.16-2.627-.328-.219-.657-.438-.876-.657-2.408-1.751-4.598-3.83-6.569-6.019l-.438-.438-.328-.328-.657-.766-1.314-1.533c-.875-.985-1.751-1.97-2.627-3.064l15.218-13.243 2.627 2.955 2.518 2.955c1.314 1.423 2.737 2.846 4.27 3.94 1.971 1.532 4.27 2.846 6.569 3.831.328 3.721 0 10.506-4.927 18.934z" fill="#fff"/><path d="M249.656 139.324l1.423 2.079s3.723-4.925 5.256-12.367c1.532-7.443.875-9.303.875-9.303l-2.627.766" fill="#fff"/><path d="M258.854 133.414c1.313 0 1.313-1.97 0-1.97-1.314-.11-1.314 1.97 0 1.97z" fill="#C46C30"/><path d="M286.88 135.384l-.657 2.189a6.625 6.625 0 01-3.175-1.752c-1.642-1.422-3.065-3.611-4.16-6.128-1.095-2.518-1.642-5.144-1.533-7.224.11-1.204.328-2.298.766-3.064h2.737c-.766.766-1.204 2.079-1.313 3.174-.11 1.86.328 4.049 1.313 6.347.438 1.095.986 2.08 1.643 3.065a21.416 21.416 0 001.97 2.298c.876.657 1.752 1.095 2.409 1.095z" fill="#00A5AD"/><path d="M282.062 118.967v-.438s3.943-2.627 4.819-4.268c1.642-3.174 2.299-7.224 4.926-6.895 2.628.328 1.532 3.83.328 7.223-1.205 3.393 5.256 9.412 5.256 9.412s-2.847 3.612-6.241 6.348" fill="#C46C30"/><path d="M290.384 115.246s2.737-.657 4.38-4.05c1.642-3.393 1.751-7.114 4.05-6.895 2.299.219 2.737 3.065 1.533 6.895-2.409 7.224-8.321 8.756-8.321 8.756" fill="#C46C30"/><path d="M292.901 116.997s2.847-.329 4.927-3.393c2.08-3.064 2.737-6.786 5.036-6.238 2.299.547 2.299 3.392.548 7.004-3.285 6.786-9.416 7.552-9.416 7.552" fill="#C46C30"/><path d="M296.405 125.096s11.495-9.084 6.678-11.711c-4.817-2.627-11.605 7.88-11.714 8.099" fill="#C46C30"/><path d="M241.226 135.931c-1.423-.766-3.722-2.189-5.146-3.174-.328-.219-.656-.438-.875-.657l2.189-18.277c-.219.109.548.219 1.533 7.333.438 2.736 1.752 11.71 2.299 14.775z" fill="#EEE"/><path d="M211.228 132.1s4.489 3.612 14.014 2.736c9.525-.875 10.839-2.189 10.839-2.189s3.832-8.536 1.423-18.277c-2.409-9.631-8.868-9.631-8.868-9.631l-14.889-5.8s-5.146.656-8.431 7.332c-3.284 6.895-2.08 20.029 5.912 25.829z" fill="#fff"/><path d="M206.411 325.052l-7.664 9.85-2.846-2.189-.11-.109c-.547-.548-.985-1.314-1.204-2.299-.547-2.845 1.423-6.238 4.27-7.77 1.752-.876 3.503-.766 4.598.109l.219.219 2.737 2.189z" fill="#3F51B5"/><path d="M206.256 332.695c2.022-2.79 1.994-6.259-.063-7.748-2.056-1.49-5.363-.435-7.385 2.355-2.022 2.79-1.994 6.259.063 7.748 2.056 1.49 5.362.436 7.385-2.355z" fill="#9556B7"/><path d="M210.134 327.569l-7.664 9.85-2.737-2.298-.109-.11c-.548-.547-.985-1.313-1.204-2.298-.548-2.846 1.423-6.238 4.269-7.771 1.752-.875 3.504-.766 4.599.11l.219.219 2.627 2.298z" fill="#3F51B5"/><path d="M209.934 335.241c2.022-2.79 1.994-6.26-.062-7.749-2.057-1.49-5.363-.435-7.385 2.355-2.022 2.79-1.994 6.259.062 7.749 2.057 1.489 5.363.435 7.385-2.355z" fill="#9556B7"/><path d="M213.529 308.088c-3.613 6.567-.767 17.402-3.832 13.462-3.066-3.94-1.642-21.67-1.642-21.67" fill="#C46C30"/><path d="M252.284 206.961l-.986 4.378.329 3.502-.657 6.348-.985 6.457-.986 6.457c-.328 2.189-.657 4.268-.985 6.457l-.548 3.393c-.218 1.204-.328 2.299-.547 3.502-.438 2.408-.876 4.816-1.533 7.224-.657 2.408-1.313 4.815-2.189 7.223-.876 2.408-1.861 4.816-3.066 7.224l-.985 1.751c-.329.547-.657 1.204-.985 1.751-.329.547-.657 1.204-1.095 1.751l-.548.876c-.219.218-.328.437-.438.656-2.518 3.502-5.145 7.114-7.663 10.616-5.036 7.114-10.073 14.228-14.999 21.452l-13.466-8.756c4.488-7.442 8.977-14.885 13.356-22.436 2.19-3.721 4.38-7.552 6.569-11.273.11-.219.329-.438.438-.657l.219-.547c.219-.328.329-.657.548-1.094l.985-2.299c.547-1.641 1.095-3.283 1.423-5.034.766-3.503 1.204-7.224 1.423-11.164 0-.985.11-1.97.11-2.955v-3.174c0-2.189 0-4.377.109-6.566V218.89l-.109-6.566v-3.284l-.11-3.283 27.371 1.204z" fill="#C46C30"/><path d="M156.365 329.046c2.848-2.964 3.707-6.759 1.92-8.476-1.788-1.716-5.547-.705-8.395 2.259-2.848 2.965-3.707 6.759-1.919 8.476 1.788 1.717 5.546.705 8.394-2.259z" fill="#3F51B5"/><path d="M158.349 320.455l-4.161-3.393-10.072 10.945 4.16 3.502" fill="#3F51B5"/><path d="M152.146 325.414c2.848-2.964 3.707-6.759 1.919-8.475-1.788-1.717-5.546-.706-8.394 2.259-2.848 2.964-3.707 6.759-1.92 8.475 1.788 1.717 5.547.706 8.395-2.259z" fill="#9556B7"/><path d="M147.511 312.904l3.175 2.626s7.773-7.989 10.072-3.94c2.3 4.05-1.423-8.208-1.423-8.208l-5.036-.766h-.985l-2.19 1.641" fill="#5D2262"/><path d="M176.523 329.43c0 .766-.328 1.422-.876 1.97-1.204 1.422-3.394 1.532-4.817.219l-16.86-14.776s5.145-8.098 3.065-9.631c-2.08-1.532-8.43 6.567-8.43 6.567l-3.832-3.393 13.029-15.432 12.043 4.378c1.423 2.08 1.97 4.706 1.861 7.771-.219 3.283.766 4.706 2.08 10.725.985 4.378 2.08 8.537 2.627 10.507.11.329.11.657.11 1.095z" fill="#E60278"/><path d="M196.229 187.479s0 31.958-11.824 62.275c-11.386 29.003-26.494 45.201-26.494 45.201l13.356 8.865s26.057-27.362 34.487-47.171c8.43-19.81 13.028-43.997 13.138-61.508" fill="#C46C30"/><path d="M172.692 321.002c-1.971.767-4.927-3.94-7.445-13.024-1.752-7.989-7.335-12.914-7.445-13.024l12.043 4.378 4.927.657c-5.584 6.786-.11 20.357-2.08 21.013z" fill="#C46C30"/><path d="M149.227 323.154c2.848-2.964 3.708-6.759 1.92-8.475-1.788-1.717-5.546-.706-8.394 2.259-2.848 2.964-3.708 6.759-1.92 8.475 1.788 1.717 5.546.706 8.394-2.259z" fill="#3F51B5"/><path d="M151.234 314.655l-4.161-3.503-10.072 11.054 4.16 3.503" fill="#3F51B5"/><path d="M145.008 319.522c2.848-2.964 3.708-6.759 1.92-8.475-1.788-1.717-5.546-.706-8.395 2.259-2.848 2.964-3.707 6.759-1.919 8.475 1.788 1.717 5.546.706 8.394-2.259z" fill="#9556B7"/><path d="M174.208 344.605c2.886-2.928 3.793-6.712 2.027-8.451-1.767-1.739-5.537-.775-8.422 2.153-2.885 2.929-3.792 6.712-2.026 8.451 1.766 1.739 5.536.775 8.421-2.153z" fill="#3F51B5"/><path d="M176.305 336.106l-4.051-3.502-10.291 10.944 4.16 3.502" fill="#3F51B5"/><path d="M170.041 340.989c2.885-2.928 3.793-6.711 2.027-8.45-1.767-1.739-5.537-.775-8.422 2.153-2.885 2.928-3.792 6.712-2.026 8.451 1.766 1.739 5.536.775 8.421-2.154z" fill="#9556B7"/><path d="M167.234 338.661c2.885-2.928 3.792-6.711 2.026-8.45-1.766-1.739-5.537-.775-8.422 2.153-2.885 2.928-3.792 6.712-2.026 8.451 1.766 1.739 5.537.775 8.422-2.154z" fill="#3F51B5"/><path d="M169.297 330.196l-4.16-3.502-10.182 10.835 4.051 3.612" fill="#3F51B5"/><path d="M163.067 335.046c2.885-2.928 3.792-6.712 2.026-8.451-1.766-1.739-5.537-.775-8.422 2.154-2.885 2.928-3.792 6.711-2.026 8.45 1.766 1.739 5.537.775 8.422-2.153z" fill="#9556B7"/><path d="M199.404 309.182s.657 3.503.329 6.348c-.219 2.846-.329 3.174-.329 3.174l3.175 3.393 3.175-14.228-5.255-3.174" fill="#5D2262"/><path d="M211.558 329.758l-9.306-8.208c.766-4.925 1.642-12.258 0-13.243-1.971-1.204-3.503 3.94-5.365 6.786l-3.284-2.299 6.35-13.571s2.08-3.174 5.802-1.423c4.38 2.189 2.847 9.85 4.489 16.636.767 3.283 2.518 9.959 3.613 13.462.438 1.641-1.204 2.736-2.299 1.86z" fill="#E60278"/><path d="M215.717 136.697s-11.824-1.642-18.721 15.869c-6.898 17.512-4.817 33.71-5.912 44.326-1.095 10.506-4.27 20.138-4.27 20.138s3.832 10.506 30.655 10.616c26.823.109 34.158-8.865 34.158-8.865s7.445-37.321 2.08-56.474-17.189-25.063-17.189-25.063" fill="#00A5AD"/><path d="M245.167 73.438c-.657-1.642-.766-2.627-1.861-3.83-3.394-4.16-10.948-5.144-13.685-4.597-3.504.657-5.036-1.751-8.54-1.751-3.503 0-3.941 1.423-7.554 2.189-3.613.766-6.35-3.284-10.401-1.532-4.05 1.75-3.393 4.377-6.678 7.113-3.175 2.736-4.379 2.08-7.664 5.582-3.284 3.393-3.175 7.333-5.693 10.397-2.518 3.065-8.539 4.16-12.262 5.144-3.722.985-3.941 3.721-10.4 6.13-6.46 2.406-6.788 2.078-8.43 4.924-1.643 2.845-.657 6.019-.548 10.506.11 4.488-1.204 7.114 2.299 11.273 3.504 4.159 6.788 2.846 11.496 4.269 4.708 1.422 6.569 1.86 11.386.766 4.817-1.095 7.554-4.05 11.386-6.239 3.941-2.189 7.226-2.189 11.167-5.144s3.175-5.034 6.459-9.412c3.175-4.378 4.599-4.487 7.117-7.114 2.627-2.626 1.204-5.143 4.051-7.441 2.846-2.299 13.904-5.254 12.918-7.662" fill="#5D2262"/><path d="M234.767 92.263l-1.752 7.879-1.204 4.597-15.109-4.706 1.971-4.487 4.16-8.975 11.934 5.692z" fill="#C46C30"/><path d="M233.015 100.142l-1.204 4.597-15.109-4.706 1.971-4.487 14.342 4.596z" fill="#fff"/><path d="M234.768 92.263l-1.752 7.77c-4.379-3.393-6.569-8.318-7.335-10.835l9.087 3.065z" fill="#A14518"/><path d="M238.489 106.709s-3.832-5.91-13.028-5.363c-9.197.547-.329 14.119-.219 14.337.109.219 9.525 2.408 9.525 2.408" fill="#fff"/><path d="M247.138 82.303v.11c0 .219-.11.437-.11.656 0 .11 0 .22-.109.329-.219.985-.657 1.86-1.095 2.736-.109.11-.219.328-.219.438-.219.328-.328.656-.547.875-2.08 2.955-5.255 5.034-9.087 5.691-4.489.657-8.759-.875-11.824-3.83a11.838 11.838 0 01-1.752-2.19c-.219-.328-.438-.765-.657-1.094-.219-.438-.438-.766-.547-1.204-.438-.985-.657-1.97-.876-2.955v-.11c-1.204-7.441 3.941-14.446 11.386-15.54 4.16-.657 8.211.656 11.167 3.283 1.204 1.094 2.19 2.298 2.956 3.721v.11c.11.11.11.328.219.437.438.876.766 1.861.985 2.846.11.328.11.657.219 1.095.219 1.532.219 3.064-.109 4.596zM203.127 77.925c.547 2.299 1.423 4.597 2.408 6.786l-18.721 7.442c-.876-1.86-1.533-3.94-2.19-5.91-2.408-7.661-3.613-16.198-3.394-25.282.329-17.402 5.693-34.694 13.905-45.31l15.984 12.367c-4.598 5.91-9.306 18.496-9.635 33.38-.219 4.27 0 10.289 1.643 16.527z" fill="#C46C30"/><path d="M216.702 83.397c.986.11-1.641 1.204 0 0zM244.948 73c-.219.11-.438.22-.656.11-5.037-2.19-11.824-.548-13.467-1.423-.109 1.532-2.956 4.925-10.072 8.865-.328.11-.547.328-.766.438v-.11c-1.095-7.223 3.832-14.009 11.057-15.103 4.051-.657 7.883.656 10.729 3.174 1.205.985 2.081 2.189 2.847 3.611v.11l.328.328z" fill="#5D2262"/><path d="M231.155 71.468s-1.423 8.646-8.758 16.088c-8.54-.985-9.635-15.322-9.635-15.322" fill="#5D2262"/><path d="M229.951 76.502l-2.628 6.13s-2.08-.329-3.284-2.19c-1.205-1.86.219-4.05 1.751-4.596 1.643-.547 4.161.656 4.161.656z" fill="#C46C30"/><path d="M209.149 137.354l-.219-3.174c0-1.095.986-1.97 2.19-1.751 2.408.328 6.459 1.313 12.371 1.203 5.912-.109 10.072-1.313 12.372-1.641 1.094-.219 2.189.656 2.189 1.641l.219 3.393c0 .876-.547 1.533-1.423 1.751-2.19.438-7.007 1.314-14.123 1.314-6.788 0-10.291-.657-12.153-1.095a2.002 2.002 0 01-1.423-1.641z" fill="#080559"/><path d="M230.169 139.761c-1.642-.109-2.847-1.86-2.628-3.94.219-2.079 1.752-3.721 3.394-3.611 1.642.109 2.847 1.86 2.628 3.94-.219 2.079-1.752 3.721-3.394 3.611z" stroke="#FFC600" stroke-width="2.214" stroke-miterlimit="10"/><path d="M220.206 102.003l-13.466 15.103-6.131-5.472c-7.444-6.567-12.809-15.213-16.093-25.281l18.611-8.318c1.752 6.566 4.927 13.352 10.839 18.496l.11.11 6.13 5.362z" fill="#fff"/><path d="M218.674 95.546l-1.533 3.502 6.788 9.412 5.365-9.63 2.189 10.943 1.533-9.631" fill="#B1B4B6"/><path d="M165.138 93.685s5.912-3.611 10.181-1.532M244.621 72.453c-.438-.985-1.971-3.612-4.27-5.144-3.394-2.298-2.08-5.253-2.08-5.253M195.573 119.842s-3.065 3.065-6.24 3.831M151.234 121.703s-.548-4.268.985-7.223M181.559 95.218s-3.285 2.298-9.744.219" stroke="#5D2262" stroke-width="1.455" stroke-miterlimit="10" stroke-linecap="round" stroke-linejoin="round"/><path d="M184.734 87.01l-3.285-2.3s4.16-3.392 11.605-6.456c7.445-2.956 11.058-3.174 11.058-3.174l-.657 4.377" fill="#fff"/><path d="M210.9 28.018s1.642-2.189 4.598-3.611c2.956-1.423 8.321-4.05 7.774-6.239-.548-2.08-3.066-1.204-4.489-.766-1.423.438-3.285 1.204-4.379.219-1.205-.985 1.861-5.253 3.503-6.786 1.642-1.532 4.27-3.83 3.613-5.69-.657-1.861-3.504-1.643-6.569.875-3.066 2.408-7.335 7.004-7.335 7.004" fill="#C46C30"/><path d="M203.675 10.835s2.518-4.268 5.365-6.895c2.846-2.627 5.802-4.159 7.445-2.736 1.532 1.423-.219 3.502-2.409 6.348-2.19 2.845-4.817 7.114-4.817 7.114" fill="#C46C30"/><path d="M195.025 15.65s4.16-6.347 6.35-9.411c2.189-3.065 4.707-7.114 7.445-6.13 2.627.876-.11 7.115-.11 7.115l2.409 20.794-1.095 1.423" fill="#C46C30"/><path d="M240.57 88.104c-.985.656-2.299.875-3.613.437-1.642-.437-2.299-1.313-2.627-2.298-.219-.876-.219-2.189.657-2.408.875-.219 1.204 1.204 3.175 1.642 1.97.328 2.846-.547 3.503.11.766.437.109 1.86-1.095 2.517z" fill="#080559"/><path d="M237.284 87.119c-1.094-.876-2.189-.985-2.846-.876.328.985.985 1.86 2.628 2.298.547.11.985.22 1.423.22-.11-.548-.438-1.095-1.205-1.642z" fill="#E60278"/><path d="M239.804 84.054c.657-.11.985-.766.766-1.422 0 0-.985-2.19-.985-3.393M237.942 84.054l1.533.11h.219" stroke="#A14518" stroke-width=".69" stroke-miterlimit="10" stroke-linecap="round" stroke-linejoin="round"/><path d="M238.379 76.064c-.766-.985-2.518-1.422-4.05-.547M242.103 76.612c.985-.767 2.847-.548 4.051.766" stroke="#000" stroke-width=".726" stroke-miterlimit="10" stroke-linecap="round" stroke-linejoin="round"/><path d="M241.884 79.457c.328-.328.657-.547 1.204-.656 1.095-.22 2.19.438 2.409 1.532l.657-.11M237.613 78.691c-.109-.438-.438-.766-.875-1.094-.986-.547-2.19-.328-2.737.657l-.548-.329" stroke="#000" stroke-width=".674" stroke-miterlimit="10" stroke-linecap="round" stroke-linejoin="round"/><path d="M235.643 81.318a1.86 1.86 0 100-3.722 1.86 1.86 0 000 3.722zM243.417 82.74a1.86 1.86 0 100-3.72 1.86 1.86 0 000 3.72z" fill="#F4F4F5"/><path d="M235.314 80.333a.876.876 0 100-1.752.876.876 0 000 1.752zM242.979 81.646a.876.876 0 100-1.751.876.876 0 000 1.751z" fill="#000"/><path d="M197.654 315.859l-7.664 9.85-2.737-2.299-.11-.109c-.547-.547-.985-1.314-1.204-2.299-.547-2.845 1.423-6.238 4.27-7.77 1.752-.876 3.503-.766 4.598.109l.219.219 2.628 2.299z" fill="#3F51B5"/><path d="M197.577 323.471c2.022-2.79 1.994-6.26-.063-7.749-2.056-1.49-5.362-.435-7.384 2.355-2.023 2.79-1.995 6.259.062 7.749 2.056 1.489 5.363.435 7.385-2.355z" fill="#9556B7"/><path d="M201.156 318.704l-7.664 9.85-2.737-2.298-.109-.11c-.548-.547-.985-1.313-1.204-2.298-.548-2.846 1.423-6.238 4.269-7.771 1.752-.875 3.504-.766 4.599.11l.219.219 2.627 2.298z" fill="#3F51B5"/><path d="M200.974 326.36c2.022-2.791 1.994-6.26-.063-7.749-2.056-1.49-5.362-.435-7.385 2.355-2.022 2.79-1.994 6.259.063 7.748 2.056 1.49 5.363.436 7.385-2.354z" fill="#9556B7"/><path d="M230.498 64.901c-3.941.547.438 4.597 0 6.02-.219.766-.328 1.75.11 2.407.328.438.876.767 1.532.767.548.11 1.205-.11 1.752-.22 1.423-.437 3.504-1.97 3.504-1.75.109.109-.767.547-.329 1.641.438 1.095 1.971 1.095 3.613.766 1.642-.328 2.956-1.313 3.065-1.203.11.218-.547.985-.219 1.532.329.547.986.656 1.533.656.767 0 1.533-.218 2.19-.547l.219-.11c.657-.437.985-1.094 1.095-1.86.109-.875-.11-1.532-.657-2.189-.986-1.204-3.175-3.72-9.306-5.253.109 0-4.16-1.314-8.102-.657z" fill="#5D2262"/></g><defs><clipPath id="clip0"><path fill="#fff" d="M0 0h380v363H0z"/></clipPath></defs></svg>